<svg width="160" height="564" viewBox="0 0 160 564" fill="none" xmlns="http://www.w3.org/2000/svg">
<path fill-rule="evenodd" clip-rule="evenodd" d="M80.3957 98.554H115.039L133.949 65.7024H174.939L193.849 98.554H228.5L245.825 68.4561L226.915 35.6046L247.411 0H288.4L308.896 35.6046L289.986 68.4561L307.311 98.554H345.132L364.042 131.406H398.684L417.595 98.554H458.584L477.495 131.406H512.151L531.061 98.554H568.874L586.199 68.4561L567.288 35.6046L587.784 0H628.774L647.684 32.8515H685.505L706 68.4561L687.09 101.308L706 134.159L687.09 167.01L706 199.861L687.084 232.723L706 265.585L685.505 301.19H647.684L628.774 334.041H603.719V328.534H608.279H625.604L634.267 313.486L642.93 298.437L634.267 283.387L625.604 268.339H608.279H603.719V268.317V262.832V262.81H608.279H625.604L634.267 247.762L642.93 232.713L634.267 217.663L625.604 202.615H603.719V197.108H608.279H625.604L634.267 182.059L642.93 167.01L634.267 151.961L625.604 136.912H608.279H590.962L582.351 151.871H582.343H576.011H576.003L586.199 134.159L568.874 104.061H551.557H534.231L525.569 119.109L516.906 134.159L525.569 149.208L527.102 151.871H520.762L512.151 136.912H494.826H477.501L468.89 151.871H468.884H462.55H462.544L464.077 149.208L472.74 134.159L464.077 119.109L455.415 104.061H438.09H420.764L412.102 119.109L403.439 134.159L412.102 149.208L413.635 151.871H407.295L398.684 136.912H381.359H364.042L355.431 151.871H355.423H349.091H349.083L359.283 134.152L350.624 119.109L341.962 104.061H324.636H307.311L298.648 119.109L289.986 134.159L298.648 149.208L300.181 151.871H293.841L285.23 136.912H250.58L241.97 151.871H235.63L237.163 149.208L245.825 134.159L237.163 119.109L228.5 104.061H211.175H193.849L185.187 119.109L176.524 134.159L185.187 149.208L186.719 151.871H180.38L171.769 136.912H137.126L119.802 167.01L137.126 197.108H154.444H157.768V202.615H137.126L119.797 232.719L128.456 247.762L137.119 262.81H154.444H157.768V262.832V268.317V268.339H154.444H137.126L119.802 298.437L137.126 328.534H154.444H157.768V334.041H137.126L119.802 364.139L137.126 394.237H171.769L180.431 379.188L185.041 371.181L190.679 361.385H228.5L247.411 328.534H288.4L307.311 361.385H341.953L360.863 328.534H401.854L420.764 361.385H455.42L474.331 328.534H515.321L535.816 364.139L531.763 371.181L525.569 381.941L516.906 396.991L525.569 412.04L534.231 427.088H551.557H568.874L586.203 396.983L577.544 381.941L571.35 371.181H577.69L590.962 394.237H628.774L647.684 427.088H685.505L706 462.693L687.09 495.544L706 528.395L685.505 564H644.515L624.02 528.395L642.93 495.544L625.604 465.446H587.784L568.874 432.595H531.061L512.151 399.744H477.495L458.584 432.595H417.595L398.684 399.744H364.042L345.132 432.595H304.141L285.231 399.744H250.58L231.67 432.595H193.849L174.939 465.446H137.126L118.216 498.298H80.3957L61.4857 531.149H20.4952L0 495.544L20.4952 459.939H58.3158L75.6412 429.841L58.3158 399.744H20.4952L0 364.139L20.4952 328.534H58.3158L75.6412 298.437L56.7312 265.585L75.6475 232.723L58.3158 202.615H20.4952L0 167.01L18.9106 134.159L0 101.308L20.4952 65.7024H61.4857L80.3957 98.554ZM590.962 399.744L573.633 429.848L582.292 444.891L590.954 459.939H608.28H625.605L634.268 444.891L642.93 429.841L634.268 414.792L625.605 399.744H608.28H590.962ZM630.36 462.693L639.023 447.644L647.685 432.595H665.011H682.335L690.998 447.644L699.661 462.693L690.998 477.742L682.335 492.791H647.685L639.023 477.742L630.36 462.693ZM630.36 528.395L639.023 513.346L647.685 498.298H665.011H682.335L690.998 513.346L699.661 528.395L690.998 543.445L682.335 558.493H665.01H647.685L639.023 543.445L630.36 528.395ZM460.176 364.139L468.839 349.09L477.501 334.041H494.827H512.151L520.814 349.09L529.477 364.139L520.814 379.188L512.151 394.237H494.826H477.501L468.839 379.188L460.176 364.139ZM346.713 364.132L364.042 394.237H381.359H398.685L407.347 379.188L416.01 364.139L407.347 349.09L398.685 334.041H381.359H364.034L355.372 349.09L346.713 364.132ZM359.283 396.997L341.954 366.893H324.637H307.312L298.649 381.941L289.986 396.991L298.649 412.04L307.312 427.088H324.637H341.962L350.624 412.04L359.283 396.997ZM403.44 396.991L412.102 381.941L420.765 366.893H438.09H455.415L464.078 381.941L472.741 396.991L464.078 412.04L455.415 427.088H438.09H420.765L412.102 412.04L403.44 396.991ZM233.256 364.139L241.918 349.09L250.581 334.041H267.906H285.231L293.894 349.09L302.556 364.139L293.894 379.188L285.231 394.237H267.906H250.581L241.918 379.188L233.256 364.139ZM115.039 361.385L132.364 331.287L115.039 301.19H80.397L71.7343 316.239L63.071 331.287L71.7343 346.337L80.397 361.385H97.7217H115.039ZM132.364 396.991L115.039 366.893H80.397L71.7343 381.941L63.071 396.991L71.7343 412.04L80.397 427.088H115.039L132.364 396.991ZM137.127 399.744L119.802 429.841L137.127 459.939H154.445H171.77L180.432 444.891L189.095 429.841L180.432 414.792L171.77 399.744H154.445H137.127ZM132.369 462.7L115.039 432.595H97.7223H80.397L71.7343 447.644L63.071 462.693L71.7343 477.742L80.397 492.791H97.7217H115.047L123.71 477.742L132.369 462.7ZM176.525 396.991L185.188 381.941L193.85 366.893H211.175H228.501L237.163 381.941L245.826 396.991L237.163 412.04L228.501 427.088H211.175H193.85L185.188 412.04L176.525 396.991ZM6.34044 364.139L15.0037 349.09L23.6658 334.041H40.9911H58.3165L66.9785 349.09L75.6418 364.139L66.9785 379.188L58.3165 394.237H40.9911H23.6658L15.0037 379.188L6.34044 364.139ZM6.34044 495.544L15.0037 480.495L23.6658 465.446H40.9911H58.3165L66.9785 480.495L75.6418 495.544L66.9785 510.593L58.3165 525.642H40.9911H23.6658L15.0037 510.593L6.34044 495.544ZM590.955 65.7018H625.606L634.268 50.6532L642.931 35.6039L634.268 20.5553L625.606 5.50603H608.28H590.955L582.293 20.5553L573.63 35.6039L582.293 50.6532L590.955 65.7018ZM573.634 101.299L590.963 131.405H625.606L634.268 116.356L642.931 101.307L634.268 86.2577L625.606 71.2091H608.28H590.955L582.293 86.2577L573.634 101.299ZM115.039 229.958L132.364 199.86L115.039 169.762H97.7223H80.397L71.7343 184.811L63.071 199.86L71.7343 214.91L80.397 229.958H97.7217H115.039ZM115.039 295.682L132.369 265.577L123.71 250.535L115.047 235.486H97.7223H80.397L71.7343 250.535L63.071 265.584L71.7343 280.634L80.397 295.682H97.7217H115.039ZM115.039 164.256L132.364 134.158L115.039 104.06H97.7223H80.397L71.7343 119.109L63.071 134.158L71.7343 149.207L80.397 164.256H115.039ZM630.361 68.4555L639.023 53.4062L647.686 38.3576H665.011H682.336L690.999 53.4062L699.661 68.4555L690.999 83.5047L682.336 98.5534H647.686L639.023 83.5047L630.361 68.4555ZM630.361 134.158L639.023 119.109L647.686 104.06H665.011H682.336L690.999 119.109L699.661 134.158L690.999 149.207L682.336 164.256H647.686L639.023 149.207L630.361 134.158ZM630.361 265.584L639.023 250.535L647.686 235.486H665.011H682.336L690.999 250.535L699.661 265.584L690.999 280.634L682.336 295.682H665.011H647.686L639.023 280.634L630.361 265.584ZM630.361 199.86L639.023 184.811L647.686 169.762H665.011H682.336L690.999 184.811L699.661 199.86L690.999 214.91L682.336 229.958H665.011H647.686L639.023 214.91L630.361 199.86ZM233.256 35.6039L241.918 20.5553L250.581 5.50603H267.906H285.231L293.894 20.5553L302.556 35.6039L293.894 50.6532L285.231 65.7018H250.581L241.918 50.6532L233.256 35.6039ZM233.256 101.307L241.918 86.2577L250.581 71.2091H267.906H285.231L293.894 86.2577L302.556 101.307L293.894 116.356L285.231 131.405H267.906H250.581L241.918 116.356L233.256 101.307ZM119.798 101.299L137.127 131.405H154.445H171.77L180.432 116.356L189.095 101.307L180.432 86.2577L171.77 71.2091H154.445H137.119L128.457 86.2577L119.798 101.299ZM23.6658 131.405H58.3165L66.9785 116.356L75.6418 101.307L66.9785 86.2577L58.3165 71.2091H40.9911H23.6658L15.0037 86.2577L6.34044 101.307L15.0037 116.356L23.6658 131.405ZM6.34044 167.009L15.0037 151.96L23.6658 136.912H40.9911H58.3165L66.9785 151.96L75.6418 167.009L66.9785 182.059L58.3165 197.107H40.9911H23.6658L15.0037 182.059L6.34044 167.009Z" fill="#FEFEFE"/>
</svg>
