<svg width="102" height="60" viewBox="0 0 102 60" fill="none" xmlns="http://www.w3.org/2000/svg">
<path fill-rule="evenodd" clip-rule="evenodd" d="M24.8049 39.8648C24.8798 39.9582 24.9268 40.2304 24.9455 40.6816C24.9642 41.1327 24.9361 41.6539 24.8611 42.2449C24.7861 42.8361 24.6455 43.4195 24.4393 43.9951C24.2331 44.5708 23.9612 45.014 23.6237 45.3251C22.8363 46.1653 21.9083 46.8031 20.8395 47.2386C19.7707 47.6742 18.6083 47.9931 17.3523 48.1954C16.096 48.3976 14.7555 48.5142 13.3305 48.5455C11.9055 48.5766 10.4431 48.5766 8.94318 48.5455C8.8682 48.7009 8.82143 48.9032 8.80257 49.152C8.78386 49.4011 8.765 49.6422 8.74644 49.8754C8.72759 50.1089 8.69952 50.3188 8.66196 50.5056C8.62439 50.6922 8.5307 50.7855 8.38074 50.7855C8.15579 50.8166 8.01517 50.7311 7.9589 50.5288C7.90262 50.3267 7.86521 50.0854 7.8465 49.8055C7.82764 49.5255 7.79022 49.2533 7.7338 48.9888C7.67753 48.7244 7.53706 48.5455 7.31211 48.4521C6.9372 48.4521 6.69324 48.4442 6.58084 48.4287C6.46844 48.4132 6.40267 48.4287 6.38396 48.4754C6.36525 48.522 6.37475 48.6233 6.41202 48.7787C6.44959 48.9344 6.41202 49.152 6.29962 49.4321C6.26205 49.681 6.16836 49.8055 6.0184 49.8055C5.86843 49.8055 5.75588 49.681 5.6809 49.4321C5.64333 49.1209 5.63412 48.8877 5.65283 48.7321C5.67154 48.5766 5.66219 48.4754 5.62462 48.4287C5.58721 48.382 5.50287 48.3587 5.37146 48.3587C5.24035 48.3587 5.00605 48.3587 4.6684 48.3587C4.36847 49.3543 4.19965 50.5056 4.16238 51.8123C4.12481 53.1191 4.12481 54.3479 4.16238 55.4992C4.19965 56.6504 4.19965 57.6072 4.16238 58.3693C4.12481 59.1317 3.93728 59.466 3.59978 59.3728C3.2997 59.2794 3.14974 58.9761 3.14974 58.4627C3.14974 57.9493 3.19666 57.2258 3.2905 56.2926C3.38419 55.3593 3.48724 54.2236 3.59978 52.8857C3.71219 51.5478 3.74975 50.0076 3.71218 48.2654H3.54351C3.50609 48.5142 3.46853 48.7476 3.43111 48.9655C3.39354 49.1832 3.31856 49.261 3.20601 49.1987C3.01848 49.2298 2.91543 49.1444 2.89672 48.942C2.87787 48.7399 2.88737 48.5142 2.92479 48.2654C2.13739 48.2654 1.53738 48.2731 1.12489 48.2888C0.712414 48.3042 0.421836 48.312 0.253161 48.312C0.0841897 48.312 0 48.2809 0 48.2187C0 48.1565 0 48.0475 0 47.8919C0.0749831 47.4875 0.11255 46.6086 0.11255 45.2552C0.11255 43.9018 0.103049 42.3461 0.0841914 40.5882C0.0656312 38.8304 0.0467738 36.9791 0.0282136 35.0345C0.00920802 33.09 0 31.3087 0 29.691C0 28.0731 0.0282139 26.7351 0.0841914 25.6772C0.140614 24.6194 0.243658 24.0905 0.393624 24.0905C0.468607 24.0905 0.496821 24.1838 0.478113 24.3706C0.459256 24.5573 0.43119 24.7595 0.393624 24.9773C0.356207 25.195 0.327997 25.3973 0.309436 25.5839C0.290579 25.7706 0.337351 25.864 0.450048 25.864C0.862529 25.864 1.05927 25.7084 1.04056 25.3973C1.0217 25.0861 1.0125 24.7127 1.0125 24.2772C1.0125 24.1838 1.08748 24.1372 1.23744 24.1372C1.38741 24.1372 1.66864 24.1372 2.08112 24.1372C2.23108 24.4172 2.26865 24.6972 2.19366 24.9773C2.1561 25.2261 2.09062 25.5372 1.99678 25.9107C1.90294 26.284 1.82796 26.6496 1.77183 27.0074C1.71555 27.3651 1.72491 27.6763 1.79989 27.9407C1.87487 28.2052 2.06226 28.3376 2.36234 28.3376C2.54972 28.3376 2.75611 28.2441 2.98106 28.0575C3.09346 27.9641 3.14053 27.8008 3.12182 27.5674C3.10296 27.3341 3.0654 27.0617 3.00913 26.7507C2.953 26.4396 2.89672 26.1051 2.84045 25.7473C2.78417 25.3896 2.77482 25.0394 2.81239 24.6972H3.20601C3.20601 24.7905 3.20601 24.915 3.20601 25.0705C3.20601 25.2261 3.21551 25.3662 3.23422 25.4907C3.25293 25.615 3.2905 25.7162 3.34662 25.794C3.4029 25.8717 3.48724 25.8795 3.59978 25.8173C3.71219 25.755 3.77781 25.6928 3.79667 25.6306C3.81538 25.5683 3.82473 25.4129 3.82473 25.1639C3.82473 24.604 3.81538 24.2928 3.79667 24.2305C3.77781 24.1683 3.78732 24.1372 3.82473 24.1372C4.04968 24.3237 4.15288 24.5339 4.13417 24.7673C4.11546 25.0006 4.07789 25.234 4.02162 25.4673C3.96534 25.7006 3.93728 25.9263 3.93728 26.1439C3.93728 26.3618 4.08725 26.5174 4.38718 26.6106C4.4246 26.6419 4.49037 26.6185 4.58406 26.5407C4.6779 26.4629 4.74339 26.3929 4.78095 26.3307C4.85593 26.0817 4.88415 25.794 4.86544 25.4673C4.84658 25.1406 4.81852 24.7283 4.78095 24.2305C4.78095 24.1372 5.13716 24.0828 5.84957 24.067C6.56213 24.0516 7.35888 24.0516 8.24012 24.067C9.12136 24.0828 9.94617 24.0983 10.715 24.1139C12.4625 24.1491 13.8569 24.1944 15.6366 24.4405C16.8742 24.6117 17.9989 24.915 19.0114 25.3506C19.925 25.7297 21.0475 26.6791 21.7393 27.3808C22.2456 27.8942 22.6955 28.4698 23.0893 29.1075C23.4831 29.7453 23.7362 30.4219 23.8486 31.1376C23.9238 31.6354 23.8767 32.0943 23.708 32.5144C23.5393 32.9344 23.3331 33.3389 23.0893 33.7279C22.8455 34.1166 22.6112 34.4822 22.3862 34.8246C22.1613 35.1667 22.03 35.5245 21.9925 35.898C21.9925 36.1779 22.1331 36.4501 22.4143 36.7145C22.6955 36.9791 23.0143 37.2514 23.3705 37.5313C23.7269 37.8114 24.0737 38.1147 24.4111 38.4414C24.7486 38.7682 24.9735 39.1182 25.0862 39.4915L24.8049 39.8648ZM15.1485 16.3485L10.8812 19.5339H0.275582V0H10.8498L15.1485 3.20887V7.77848L12.4971 9.75526L15.1485 11.732V16.3485ZM8.93576 3.90687H6.23726V7.81358H8.93576V3.90687ZM8.93576 15.6272V11.7204H6.23726V15.6272H8.93576ZM31.8308 19.5339H25.6181V11.7204H22.9196V19.5339H16.9579V0H27.5007L31.8308 3.22062V7.79023L29.195 9.75526L31.8308 11.7204V19.5339ZM25.6181 7.81358V3.90687H22.9196V7.81358H25.6181ZM40.0987 19.5339H33.6454V0H40.0987V19.5339ZM56.6712 16.3446L52.3934 19.5339H46.0291L41.7669 16.3446V13.6621H47.8855V15.6272H50.5839V11.6969H46.0813L41.7669 8.51931V3.20887L46.0604 0H52.3619L56.6712 3.22062V5.86015H50.5839V3.90687H47.8855V7.79023H52.3619L56.6712 10.9991V16.3446ZM73.9078 19.5339H67.554L64.9653 11.7087V19.5339H58.5121V0H64.9653V7.80198L67.8101 0H73.8661L70.1739 9.68506L73.9078 19.5339ZM86.8144 3.88351H81.5901V7.81358H86.3804V11.7204H81.5901V15.6272H86.783V19.5339H75.1368V0H86.8144V3.88351ZM101.488 3.88351H97.6605V19.5339H91.2072V3.88351H87.3948V0H101.488V3.88351ZM8.15564 29.3641C8.08065 29.3641 8.03373 29.3797 8.01502 29.4108C7.99617 29.4419 7.98681 29.5432 7.98681 29.7142C7.98681 29.8854 7.98681 30.1498 7.98681 30.5075C7.98681 30.8654 7.98681 31.3709 7.98681 32.0243C7.98681 32.3976 7.98681 32.6777 7.98681 32.8643C7.98681 33.051 7.99617 33.1755 8.01502 33.2376C8.03373 33.3 8.09001 33.331 8.1837 33.331C8.27754 33.331 8.43686 33.331 8.66181 33.331C9.37437 33.3621 9.88054 33.3855 10.1805 33.4011C10.4806 33.4166 10.6679 33.4478 10.7429 33.4944C10.8179 33.5411 10.8366 33.6266 10.7992 33.7511C10.7618 33.8755 10.7429 34.0467 10.7429 34.2645C10.7429 34.42 10.8273 34.4978 10.9961 34.4978C11.1648 34.4978 11.268 34.4044 11.3054 34.2178C11.3054 34.0622 11.3242 33.9145 11.3618 33.7744C11.3992 33.6343 11.3242 33.4866 11.1367 33.331C11.3992 33.4866 11.549 33.7279 11.5867 34.0545C11.6242 34.3811 11.6242 34.7156 11.5867 35.0578C11.549 35.4 11.5118 35.7035 11.4742 35.9679C11.4366 36.2323 11.4742 36.3802 11.5867 36.4113C11.8117 36.4734 11.943 36.3723 11.9804 36.108C12.0178 35.8434 12.0273 35.5323 12.0086 35.1746C11.9899 34.8167 11.9804 34.4511 11.9804 34.0778C11.9804 33.7044 12.0553 33.4244 12.2055 33.2376C12.3554 33.2689 12.4586 33.4166 12.5148 33.6812C12.571 33.9455 12.5992 34.249 12.5992 34.5911C12.5992 34.9333 12.5804 35.2601 12.543 35.5712C12.5054 35.8824 12.4678 36.1001 12.4304 36.2246C12.3929 36.3802 12.3648 36.5512 12.3459 36.738C12.3272 36.9247 12.4117 37.049 12.5992 37.1113C12.8242 37.1424 12.9647 37.049 13.0209 36.8313C13.0773 36.6135 13.0959 36.3568 13.0773 36.0611C13.0585 35.7656 13.0209 35.4546 12.9647 35.1279C12.9085 34.8011 12.8805 34.5444 12.8805 34.3577C12.8053 33.8288 12.9179 33.4244 13.218 33.1444C13.5177 32.8643 13.799 32.5533 14.0616 32.211C14.4741 31.7753 14.6052 31.3321 14.4553 30.8808C14.3053 30.4297 14.0054 30.0643 13.5553 29.7843C13.218 29.5664 12.9742 29.6442 12.8242 30.0176C12.7492 30.2043 12.7492 30.4375 12.8242 30.7175C12.8992 30.9976 12.9742 31.2775 13.0491 31.5576C13.1241 31.8376 13.1617 32.0944 13.1617 32.3277C13.1617 32.5611 13.0491 32.7088 12.8242 32.7711C12.3741 32.8332 12.1023 32.7088 12.0086 32.3976C11.9147 32.0866 11.8775 31.7288 11.8962 31.3242C11.9147 30.9198 11.9336 30.5464 11.9523 30.2043C11.9712 29.862 11.8493 29.691 11.5867 29.691C11.4742 29.7221 11.4179 29.8076 11.4179 29.9476C11.4179 30.0875 11.4179 30.2276 11.4179 30.3677C11.4179 30.5075 11.3992 30.6241 11.3618 30.7175C11.3242 30.8108 11.193 30.8108 10.9679 30.7175C10.9305 30.4064 10.9024 30.1498 10.8835 29.9476C10.8648 29.7453 10.8742 29.5198 10.9117 29.2708C10.4993 29.2708 10.0681 29.2787 9.61803 29.2942C9.16798 29.3097 8.73694 29.333 8.32446 29.3641H8.15564ZM16.3677 42.105C16.6676 41.545 16.7897 41.0237 16.7334 40.5415C16.677 40.0592 16.5083 39.6548 16.2271 39.3282C15.9459 39.0014 15.5708 38.7526 15.102 38.5814C14.6333 38.4102 14.1365 38.3558 13.6116 38.4181C11.8117 38.2003 10.518 38.1147 9.73043 38.1614C8.94303 38.2081 8.43686 38.4025 8.21191 38.7447C7.98681 39.0871 7.93069 39.6081 8.04324 40.3082C8.15564 41.0082 8.21191 41.9027 8.21191 42.9917C8.43686 43.1784 8.55876 43.3029 8.57747 43.3652C8.59633 43.4273 8.66181 43.4739 8.77436 43.5051C8.88691 43.5361 9.11186 43.5517 9.44936 43.5517C9.7867 43.5517 10.3679 43.5673 11.193 43.5984C11.4179 43.8474 11.549 44.1195 11.5867 44.4152C11.6242 44.7106 11.6242 44.9829 11.5867 45.2319C11.549 45.4807 11.5211 45.6907 11.5024 45.8619C11.4835 46.033 11.5118 46.1186 11.5867 46.1186C11.8493 46.1186 11.9712 45.9864 11.9523 45.7218C11.9336 45.4575 11.9241 44.9985 11.9241 44.3452C12.2616 44.4384 12.4678 44.6019 12.543 44.8351C12.6179 45.0686 12.6367 45.3485 12.5992 45.6753C12.5617 46.0019 12.5054 46.3441 12.4304 46.702C12.3554 47.0597 12.3554 47.4098 12.4304 47.752C12.4304 47.8142 12.4865 47.8919 12.5992 47.9854C12.7116 48.0788 12.8616 48.0164 13.0491 47.7985C13.1241 47.7053 13.1428 47.4953 13.1054 47.1687C13.0678 46.8421 13.0303 46.6163 12.9929 46.4919C12.9179 46.2119 12.8805 45.9397 12.8805 45.6753C12.8805 45.4107 12.8992 45.2008 12.9367 45.0451C12.9742 44.8895 13.0117 44.8119 13.0491 44.8119C13.0866 44.8119 13.1241 44.9518 13.1617 45.2319C13.199 45.4807 13.2085 45.644 13.1897 45.7218C13.171 45.7996 13.199 45.9318 13.2741 46.1186C13.3491 46.0874 13.4053 46.064 13.4429 46.0486C13.4805 46.033 13.5084 45.9941 13.5271 45.9318C13.546 45.8697 13.5553 45.753 13.5553 45.5819C13.5553 45.4107 13.5553 45.1541 13.5553 44.8119C13.6679 44.9362 13.7241 45.0918 13.7241 45.2786C13.7241 45.4653 13.7054 45.6519 13.6679 45.8386C13.6303 46.0252 13.6116 46.1964 13.6116 46.3518C13.6116 46.5076 13.7054 46.6319 13.8928 46.7253C14.0428 46.7253 14.1178 46.6475 14.1178 46.4919C14.1553 46.3675 14.174 46.1808 14.174 45.9318C14.174 45.3408 14.174 44.9518 14.174 44.7652C14.174 44.5784 14.2116 44.4618 14.2866 44.4152C14.3614 44.3684 14.4741 44.3141 14.6241 44.2518C14.774 44.1894 14.999 43.9873 15.2989 43.6451C15.599 43.4584 15.7583 43.2405 15.777 42.9917C15.7959 42.7427 15.9552 42.5095 16.2551 42.2916L16.3677 42.105ZM52.9084 28.1274C53.8989 29.4132 54.7286 30.7955 55.1362 32.4912L44.6063 30.3671C44.4549 30.0719 44.3162 29.9242 44.1901 29.9242C44.0026 29.9242 43.8528 29.8466 43.7402 29.691C43.6277 29.5354 43.5903 29.3797 43.6277 29.2243C43.5527 29.162 43.4964 29.2398 43.459 29.4576C43.4255 29.652 43.392 29.8713 43.3585 30.1153L42.4559 29.9333C42.4847 29.7126 42.4628 29.4917 42.3902 29.2708C42.3528 29.2708 42.2216 29.2398 41.9965 29.1776C41.8091 29.5198 41.5654 29.6287 41.2653 29.5042C40.9654 29.3797 40.7966 29.0998 40.7592 28.6643C40.4215 28.6643 40.2061 28.7421 40.1122 28.8974C40.0185 29.0529 39.9716 29.2164 39.9716 29.3876L39.9715 29.4321L31.1039 27.6431C31.0979 27.1403 31.1478 26.7028 31.2534 26.3307C31.7033 26.1128 32.069 26.1051 32.3501 26.3074C32.6315 26.5096 32.7908 26.8285 32.8283 27.2642C32.9782 27.1395 33.1657 27.0617 33.3908 27.0308C33.6157 26.9996 33.822 27.0617 34.0095 27.2173C34.197 27.4352 34.4031 27.4896 34.6282 27.3808C34.8532 27.2717 35.097 27.1708 35.3593 27.0774C35.3593 26.5174 35.2094 25.9573 34.9095 25.3973C34.7219 25.024 34.8128 24.7594 35.1907 24.6273C39.7491 23.0325 49.3487 23.5066 52.9084 28.1274ZM55.3619 33.6831C55.6691 35.8648 55.3577 38.3454 54.4272 41.1248C53.9771 42.1515 53.4992 42.9684 52.9927 43.575C52.4867 44.1817 51.9991 44.6718 51.5303 45.0451C51.0616 45.4185 50.6305 45.6907 50.2367 45.8619C49.843 46.033 49.5148 46.1808 49.2525 46.3053C48.6524 46.5853 48.2119 46.772 47.9307 46.8653C47.6494 46.9587 47.4526 47.0208 47.34 47.0521C47.2275 47.0832 47.1807 47.1142 47.1994 47.1453C47.2181 47.1764 47.2275 47.2853 47.2275 47.4719C47.2275 47.5343 47.2275 47.612 47.2275 47.7053C47.2275 47.7985 47.2088 47.8919 47.1713 47.9854C47.1338 48.0788 47.0869 48.1409 47.0307 48.172C46.9743 48.2031 46.8713 48.1876 46.7213 48.1253C46.6462 48.0631 46.5433 48.1098 46.4119 48.2654C46.2806 48.421 46.1213 48.7321 45.9338 49.1987C45.8213 49.4477 45.7931 49.6888 45.8496 49.9221C45.9058 50.1555 45.9807 50.4043 46.0745 50.6689C46.1682 50.9333 46.2338 51.1899 46.2712 51.4389C46.3088 51.6879 46.2712 51.9212 46.1588 52.139C45.9713 52.5435 45.7838 52.7769 45.5964 52.839C45.4089 52.9012 45.2402 52.8547 45.0901 52.6991C44.94 52.5435 44.8276 52.3177 44.7526 52.0224C44.6777 51.7267 44.6777 51.4078 44.7526 51.0656C44.8651 50.5367 44.9214 50.0155 44.9214 49.5021C44.9214 48.9888 44.8745 48.5766 44.7808 48.2654C44.6871 47.9543 44.5276 47.791 44.3027 47.7753C44.0777 47.7597 43.7776 47.9854 43.4027 48.4521C43.2528 48.5142 43.1683 48.4677 43.1496 48.312C43.1309 48.1565 43.1027 48.0164 43.0652 47.8919C42.8777 47.8919 42.784 47.9543 42.784 48.0788C42.784 48.2031 42.7934 48.3355 42.8121 48.4754C42.8309 48.6154 42.8216 48.7321 42.784 48.8254C42.7466 48.9188 42.5965 48.9655 42.3341 48.9655C42.109 48.9032 42.0152 48.7555 42.0529 48.522C42.0903 48.2888 42.1279 48.0788 42.1653 47.8919H41.6591C41.5841 48.0788 41.5559 48.2888 41.5746 48.522C41.5935 48.7555 41.6122 48.9888 41.6309 49.2222C41.6496 49.4554 41.6309 49.6499 41.5746 49.8055C41.5184 49.9611 41.359 50.0389 41.0967 50.0389C40.7966 50.0389 40.6186 49.9611 40.5621 49.8055C40.506 49.6499 40.506 49.4633 40.5621 49.2455C40.6186 49.0277 40.6748 48.8022 40.731 48.5687C40.7872 48.3355 40.7779 48.1253 40.7029 47.9388H39.9154C39.728 47.9388 39.5404 47.9465 39.3529 47.962C39.1655 47.9775 39.053 47.9854 39.0156 47.9854C38.8654 48.0475 38.7622 48.0631 38.7061 48.0321C38.6498 48.001 38.3593 47.9543 37.8344 47.8919C37.6093 47.9543 37.5156 48.1176 37.553 48.382C37.5904 48.6465 37.5156 48.841 37.3281 48.9655C37.1405 49.0587 36.9625 49.0821 36.7937 49.0354C36.625 48.9888 36.4655 48.942 36.3156 48.8954C36.1656 48.8487 36.0344 48.8643 35.9218 48.942C35.8094 49.0198 35.7344 49.2455 35.6968 49.6187C35.5844 50.2722 35.5469 51.0034 35.5844 51.8123C35.622 52.6213 35.705 53.416 35.5175 54.0382C35.4424 54.3805 35.4945 54.8643 35.6256 55.3154C35.7567 55.7665 35.6875 56.0359 35.7812 56.4559C35.875 56.8759 35.9031 57.2337 35.8657 57.5294C35.8281 57.8249 35.6032 57.9882 35.1907 58.0193C34.8156 58.0193 34.6095 57.8404 34.572 57.4826C34.5345 57.1249 34.5532 56.7048 34.6282 56.2225C34.7032 55.7403 34.8156 55.2503 34.9656 54.7525C35.1157 54.2547 35.2094 53.8657 35.247 53.5858C35.247 53.3679 35.2563 53.0412 35.275 52.6057C35.2937 52.17 35.3032 51.7189 35.3032 51.2522C35.3032 50.7855 35.2657 50.3576 35.1907 49.9688C35.1157 49.5799 35.0031 49.3388 34.8532 49.2455C34.9282 48.6233 34.8999 48.3198 34.7688 48.3355C34.6376 48.3509 34.572 48.4364 34.572 48.5922C34.422 48.9655 34.2438 49.09 34.0376 48.9655C33.8313 48.841 33.6907 48.5766 33.6157 48.172C33.5408 47.8298 33.5127 47.5964 33.5314 47.4719C33.5501 47.3476 33.5595 47.2619 33.5595 47.2154C33.5595 47.1687 33.5127 47.1297 33.419 47.0986C33.3252 47.0675 33.1283 47.0052 32.8283 46.912C30.5784 46.103 28.938 45.1541 27.9068 44.0651C26.8756 42.9761 26.2288 41.7938 25.9661 40.5182C25.6663 39.7092 25.4507 38.8304 25.3195 37.8813C25.1881 36.9324 25.16 35.9679 25.235 34.9879C25.31 34.0078 25.4975 33.0355 25.7974 32.071C26.0975 31.1065 26.5286 30.2043 27.0912 29.3641C27.0163 29.7376 26.8849 30.2354 26.6975 30.8575C26.5099 31.4798 26.3225 32.1332 26.1349 32.8176C25.9474 33.5022 25.7881 34.2022 25.6568 34.9179C25.5256 35.6334 25.4599 36.2713 25.4599 36.8313C25.4599 37.3914 25.5538 37.8502 25.7412 38.2081C25.9289 38.5658 26.2475 38.7292 26.6975 38.6981C27.0349 38.636 27.2693 38.4803 27.4004 38.2313C27.5319 37.9825 27.5973 37.7103 27.5973 37.4146C27.5973 37.1191 27.5504 36.8158 27.4567 36.5045C27.363 36.1934 27.26 35.9291 27.1474 35.7112C26.735 35.0578 26.585 34.2255 26.6975 33.2144C26.8099 32.2032 27.0442 31.2387 27.4004 30.321C27.7568 29.4031 28.1785 28.6408 28.6661 28.0341C28.7481 27.9321 28.8288 27.8406 28.9084 27.7594L30.3778 28.1121C30.3647 28.2989 30.3379 28.5062 30.2972 28.7342C30.2222 29.1541 30.1285 29.6132 30.016 30.111C29.9034 30.6087 29.8191 31.0831 29.7628 31.5342C29.7067 31.9853 29.7067 32.3821 29.7628 32.7242C29.8191 33.0666 29.9785 33.2689 30.2409 33.331C30.8034 33.331 31.1408 33.0666 31.2534 32.5377C31.3658 32.0088 31.394 31.3709 31.3377 30.6241C31.2816 29.8775 31.216 29.1075 31.1408 28.3142L31.1391 28.2949L36.4926 29.5799L38.1328 29.9736L38.0874 30.0643C37.9937 30.251 37.9281 30.4141 37.8905 30.5542C37.8531 30.6942 37.8531 30.7332 37.8905 30.6708C37.6654 30.982 37.5999 31.4642 37.6936 32.1177C37.7875 32.7711 37.8717 33.4088 37.9468 34.0311C38.0218 34.6534 37.9937 35.1823 37.8624 35.6179C37.7312 36.0534 37.3281 36.1934 36.6531 36.0378C36.128 35.9445 35.8657 35.6724 35.8657 35.2213C35.8657 34.77 35.9781 34.2411 36.2032 33.6343C36.4281 33.0278 36.6719 32.4132 36.9343 31.7909C37.1968 31.1686 37.3092 30.6399 37.2716 30.2043C37.1968 30.2043 37.103 30.3442 36.9906 30.6241C36.878 30.9042 36.6905 31.0443 36.4281 31.0443C36.2032 30.982 36.0531 30.7797 35.9781 30.4375C35.6407 30.9976 35.3406 31.7909 35.0783 32.8176C34.8156 33.8445 34.7032 34.9489 34.7406 36.1312C34.7782 37.3136 35.0125 38.527 35.4438 39.7714C35.875 41.0161 36.5968 42.1515 37.6093 43.1784C38.0218 43.3961 38.5092 43.5441 39.0717 43.6219C39.6341 43.6995 40.2716 43.6762 40.9841 43.5517L40.9278 43.4117C42.0903 43.3496 43.009 42.9684 43.684 42.2683C44.359 41.5682 44.8558 40.7204 45.1744 39.7248C45.4932 38.7292 45.6527 37.6558 45.6527 36.5045C45.6527 35.3535 45.5777 34.2956 45.4276 33.331C45.3296 32.7007 45.2115 32.1372 45.0734 31.6397L55.2073 34.0723V34.0722L55.3619 33.6831ZM29.5326 27.3262C29.6991 27.2689 29.8602 27.2637 30.016 27.3107C30.1796 27.2881 30.2886 27.3477 30.3432 27.4898L29.5326 27.3262ZM43.2911 31.2119C43.2905 31.2641 43.2903 31.3172 43.2903 31.3709C43.2528 31.7444 43.2058 32.0166 43.1496 32.1876C43.0933 32.3588 43.0183 32.4677 42.9246 32.5144C42.8309 32.5611 42.7184 32.592 42.5871 32.6076C42.4559 32.6232 42.3153 32.6466 42.1653 32.6777C41.8278 32.5843 41.6685 32.4132 41.687 32.1644C41.706 31.9154 41.7902 31.6276 41.9403 31.301C41.9969 31.1776 42.0523 31.0529 42.1063 30.9274L43.2911 31.2119ZM64.8693 27.5441C64.8693 27.513 64.8599 27.4896 64.8412 27.474C64.8224 27.4586 64.813 27.4352 64.813 27.4041V27.5441H64.8693ZM78.7061 23.9971C78.8561 23.9971 78.8935 24.0595 78.8185 24.1838C78.7435 24.3083 78.7061 24.3706 78.7061 24.3706C78.7061 24.3706 78.7248 24.3394 78.7624 24.2772C78.6874 24.3706 78.5655 24.5806 78.3967 24.9072C78.228 25.234 77.9468 25.7395 77.553 26.424C77.1592 27.1086 76.6437 28.0031 76.0063 29.1075C75.3688 30.212 74.5626 31.6043 73.5875 33.2843C73.8126 34.0933 73.8594 34.6144 73.7283 34.8478C73.597 35.0812 73.4283 35.299 73.2221 35.5012C73.0157 35.7034 72.8283 36.0146 72.6595 36.4346C72.4908 36.8546 72.4626 37.6402 72.5752 38.7914C72.6127 39.2581 72.669 39.6393 72.744 39.9348C72.8188 40.2304 72.8751 40.4948 72.9127 40.7283C72.9501 40.9615 72.9688 41.2026 72.9688 41.4516C72.9688 41.7004 72.9127 41.9961 72.8001 42.3383C72.7251 42.6806 72.5097 42.8128 72.1533 42.735C71.7971 42.6572 71.6378 42.4472 71.6752 42.105C71.8252 41.296 71.9377 40.5182 72.0127 39.7714C72.0877 39.1493 72.1159 38.5192 72.0971 37.8813C72.0783 37.2434 71.9753 36.7535 71.7876 36.4113C71.6378 36.6913 71.5159 36.8857 71.4221 36.9947C71.3284 37.1036 71.2534 37.259 71.1971 37.4613C71.1408 37.6636 71.1128 37.9514 71.1128 38.3247C71.1128 38.6981 71.1128 39.2736 71.1128 40.0516C71.1128 40.8293 71.1128 41.8561 71.1128 43.1317C71.1128 44.4073 71.1128 46.0408 71.1128 48.0321C71.1128 48.1253 71.0191 48.172 70.8315 48.172C70.644 48.172 70.0629 48.172 69.0879 48.172C68.6753 48.3898 68.4129 48.7321 68.3004 49.1987C68.188 49.6654 68.1504 50.1788 68.188 50.7388C68.2254 51.2989 68.3004 51.8745 68.4129 52.4657C68.5255 53.0568 68.591 53.5858 68.6097 54.0524C68.6284 54.5191 68.5818 54.8926 68.4692 55.1725C68.3567 55.4525 68.0943 55.5614 67.6817 55.4992C67.2692 55.4371 67.1005 55.2503 67.1755 54.9391C67.2505 54.6281 67.3255 54.3014 67.4004 53.9591C67.438 53.6791 67.4943 53.2979 67.5693 52.8157C67.6442 52.3333 67.6817 51.8434 67.6817 51.3456C67.6817 50.8478 67.6442 50.3734 67.5693 49.9221C67.4943 49.471 67.3442 49.1209 67.1192 48.8721C67.0442 48.8099 66.9504 48.8099 66.838 48.8721C66.7256 48.9344 66.6318 49.0354 66.5568 49.1753C66.4816 49.3155 66.4162 49.4865 66.3599 49.6888C66.3036 49.8909 66.2942 50.101 66.3317 50.3188C66.4068 50.7233 66.4723 51.0111 66.5286 51.1823C66.585 51.3534 66.6224 51.5167 66.6411 51.6724C66.6598 51.828 66.6693 52.0534 66.6693 52.349C66.6693 52.6445 66.6318 53.1191 66.5568 53.7725C66.5192 53.9591 66.4068 54.0912 66.2193 54.1691C66.0317 54.2469 65.9005 54.2703 65.8256 54.2392C65.5631 54.1769 65.4693 53.9747 65.5443 53.6324C65.6193 53.2901 65.6755 52.8079 65.7131 52.1857C65.7505 51.2522 65.7412 50.5444 65.6849 50.0622C65.6286 49.5799 65.5536 49.2533 65.4599 49.0821C65.3662 48.9109 65.2632 48.841 65.1505 48.8721C65.0381 48.9032 64.9818 48.9499 64.9818 49.0122C64.9068 49.2298 64.9162 49.51 65.01 49.8522C65.1037 50.1944 65.1318 50.4433 65.0944 50.5989C65.0194 50.9411 64.8224 51.0889 64.5037 51.0422C64.1851 50.9955 64.0443 50.8478 64.0819 50.5989C64.1569 49.9144 64.2038 49.4011 64.2226 49.0587C64.2413 48.7165 64.1943 48.4754 64.0819 48.3355C63.9693 48.1954 63.7632 48.1332 63.4632 48.1487C63.1632 48.1643 62.732 48.172 62.1694 48.172C62.0569 48.172 62.0008 48.0709 62.0008 47.8687C62.0008 47.6665 62.0008 47.0521 62.0008 46.0252C62.0008 45.5896 61.9821 45.2396 61.9445 44.9752C61.9069 44.7106 61.8695 44.384 61.8319 43.9951C61.7945 43.6061 61.7945 43.0928 61.8319 42.4551C61.8695 41.8172 61.9445 40.8915 62.0569 39.6781C61.9821 39.0248 61.8414 38.3793 61.6352 37.7414C61.4288 37.1036 61.1195 36.5045 60.7071 35.9445C59.9197 34.4822 59.2447 33.2922 58.6822 32.3743C58.1198 31.4566 57.6509 30.7021 57.2761 30.111C56.901 29.5198 56.6009 29.0529 56.376 28.7109C56.151 28.3686 55.9635 28.0496 55.8135 27.7541C55.6636 27.4586 55.523 27.1551 55.3917 26.844C55.2605 26.5329 55.1198 26.1128 54.97 25.5839C54.7074 25.0861 54.5011 24.7283 54.3513 24.5106C54.2012 24.2928 54.2012 24.1527 54.3513 24.0905C54.5011 24.0284 54.8668 24.0049 55.448 24.0205C56.0293 24.0361 56.9197 24.0438 58.1198 24.0438C58.1946 24.2305 58.2884 24.3316 58.401 24.3472C58.5134 24.3627 58.6259 24.3472 58.7383 24.3005C58.8509 24.2538 58.9634 24.1994 59.076 24.1372C59.1884 24.0751 59.2634 24.0438 59.3008 24.0438C59.3384 24.4172 59.3291 24.7595 59.2727 25.0705C59.2164 25.3817 59.2634 25.7084 59.4133 26.0507C59.6009 26.4862 59.9009 26.4552 60.3133 25.9573C60.3133 26.1128 60.2946 26.4629 60.2571 27.0074C60.2196 27.552 60.1727 28.1741 60.1165 28.8742C60.0603 29.5742 60.0322 30.2975 60.0322 31.0443C60.0322 31.7909 60.0603 32.4366 60.1165 32.9809C60.1727 33.5256 60.2852 33.8989 60.4539 34.101C60.6227 34.3033 60.8757 34.2178 61.2134 33.8445C61.4008 33.6266 61.5133 33.2455 61.5509 32.701C61.5883 32.1565 61.5976 31.5498 61.5789 30.8808C61.5601 30.212 61.532 29.5042 61.4946 28.7576C61.4572 28.0108 61.4477 27.3341 61.4664 26.7274C61.4851 26.1207 61.5694 25.6228 61.7195 25.234C61.8695 24.8451 62.1133 24.6505 62.4507 24.6505C62.5256 24.6194 62.5821 24.7051 62.6193 24.9072C62.6569 25.1095 62.6758 25.2884 62.6758 25.444C62.6008 25.6928 62.6663 25.8328 62.8726 25.864C63.0787 25.8951 63.2194 25.8328 63.2945 25.6772C63.3319 25.5529 63.3882 25.3973 63.4632 25.2106C63.5381 25.024 63.5944 24.8528 63.6318 24.6972C63.8944 25.2261 64.1101 25.6696 64.2788 26.0273C64.4474 26.3852 64.5881 26.6884 64.7006 26.9374L64.8693 27.0774V27.2173V27.3107V27.3574C64.9444 27.4197 64.9818 27.4663 64.9818 27.4974V27.6375C64.9818 27.6686 65.0005 27.6996 65.0381 27.7307V27.7774C65.1505 28.0263 65.2913 28.3219 65.4599 28.6643C65.6286 29.0064 65.8442 29.4264 66.1067 29.9242C66.2943 30.3288 66.4255 30.5153 66.5005 30.4842C66.5753 30.4531 66.6787 30.2276 66.8098 29.8076C66.9412 29.3876 67.1849 28.773 67.5412 27.9641C67.8973 27.1551 68.4504 26.1906 69.2003 25.0705C69.2753 24.8839 69.3504 24.7206 69.4254 24.5806C69.5003 24.4405 69.5752 24.2772 69.6504 24.0905C69.7252 23.9661 69.7721 23.9583 69.791 24.067C69.8097 24.1761 69.8473 24.3005 69.9035 24.4405C69.9597 24.5806 70.0534 24.6895 70.1846 24.7673C70.3159 24.8451 70.5128 24.7905 70.7754 24.604C71.0002 24.4172 71.0847 24.2851 71.0284 24.2073C70.9722 24.1294 70.9628 24.0751 71.0002 24.0438C71.0378 24.0128 71.2065 23.9971 71.5065 23.9971C71.8065 23.9971 72.4252 23.9971 73.3626 23.9971C73.4751 24.5262 73.4846 25.0628 73.3908 25.6073C73.2969 26.1518 73.2221 26.6496 73.1658 27.1007C73.1095 27.552 73.1095 27.9253 73.1658 28.2208C73.2221 28.5163 73.4375 28.6798 73.8126 28.7109C74.1875 28.7109 74.422 28.5476 74.5157 28.2208C74.6095 27.8942 74.6471 27.4974 74.6281 27.0308C74.6095 26.5639 74.5719 26.0584 74.5157 25.5139C74.4594 24.9694 74.4687 24.4795 74.5439 24.0438C74.8814 24.0438 75.1344 24.067 75.3032 24.1139C75.4719 24.1606 75.6218 24.1994 75.7531 24.2305C75.8844 24.2616 76.0343 24.2695 76.203 24.2538C76.3718 24.2384 76.6061 24.1683 76.9062 24.0438C77.2813 24.0438 77.5437 24.0516 77.6936 24.067C77.8437 24.0828 78.125 24.0751 78.5373 24.0438L78.7061 23.9971ZM99.329 31.4176C99.3664 31.4798 99.357 31.5265 99.3008 31.5576C99.2446 31.5888 99.0103 31.6043 98.5977 31.6043C98.1852 31.6043 97.5104 31.6043 96.5729 31.6043C95.6355 31.6043 94.2855 31.6043 92.523 31.6043C92.5606 31.8531 92.5887 32.0866 92.6075 32.3044C92.6262 32.5221 92.5982 32.7088 92.523 32.8643C92.4856 32.9266 92.4293 32.989 92.3544 33.051C92.2794 33.1133 92.2231 33.1444 92.1855 33.1444C91.8106 32.989 91.6794 32.7555 91.7919 32.4443C91.9045 32.1332 91.9606 31.8066 91.9606 31.4642C91.7731 31.3088 91.6889 31.2387 91.7074 31.2543C91.7263 31.2698 91.7355 31.4642 91.7355 31.8376C91.7355 32.1177 91.7169 32.2731 91.6794 32.3044C91.6418 32.3354 91.5481 32.3976 91.3981 32.491C91.2857 32.3354 91.2295 32.211 91.2295 32.1177C91.2295 32.0243 91.2295 31.9232 91.2295 31.8143C91.2295 31.7054 91.2201 31.5888 91.2013 31.4642C91.1826 31.3398 91.1169 31.1686 91.0044 30.9509C90.892 31.3242 90.8451 31.6977 90.8638 32.071C90.8826 32.4443 90.92 32.7865 90.9763 33.0977C91.0326 33.4088 91.0794 33.6812 91.1169 33.9145C91.1543 34.1477 91.1169 34.3112 91.0044 34.4044C90.7044 34.6534 90.4701 34.7235 90.3013 34.6144C90.1325 34.5056 90.0482 34.42 90.0482 34.3577C89.9358 33.9844 89.9358 33.5878 90.0482 33.1677C90.1607 32.7477 90.2452 32.3509 90.3013 31.9776C90.3576 31.6043 90.3295 31.2854 90.217 31.021C90.1046 30.7564 89.8045 30.5776 89.317 30.4842C89.317 31.262 89.3264 31.7987 89.3452 32.0943C89.3638 32.3899 89.1858 32.5377 88.8107 32.5377C88.6983 32.5377 88.6607 32.3899 88.6983 32.0943C88.7359 31.7987 88.7733 31.4798 88.8107 31.1376C88.8483 30.6399 88.7359 30.2664 88.4734 30.0176C88.2108 29.7686 87.9483 29.4886 87.6858 29.1776C86.786 28.9286 85.9517 28.8586 85.183 28.9676C84.4142 29.0764 83.8611 29.4731 83.5236 30.1576C83.3736 30.4687 83.3549 30.7564 83.4675 31.021C83.5799 31.2854 83.758 31.5265 84.0018 31.7444C84.2455 31.9621 84.5643 32.1644 84.9579 32.3509C85.3517 32.5377 85.7548 32.7088 86.1673 32.8643C86.7297 33.051 87.0297 33.3233 87.0671 33.6812C87.1047 34.0389 87.1234 34.389 87.1234 34.7312C87.1234 34.8246 87.1796 34.8868 87.292 34.9179C87.4047 34.9489 87.4984 34.9179 87.5733 34.8246C88.0983 34.4201 88.4545 34.3266 88.642 34.5444C88.8296 34.7623 88.8857 35.1356 88.8107 35.6645C88.7733 35.789 88.8107 35.8668 88.9234 35.898C89.0358 35.9291 89.1296 35.898 89.2045 35.8044C89.317 35.6489 89.4201 35.4624 89.5139 35.2445C89.6076 35.0267 89.7295 34.8401 89.8795 34.6845C90.0294 34.4668 90.2076 34.6457 90.4139 35.2213C90.6201 35.7967 90.667 36.5201 90.5545 37.3914C90.5545 37.5157 90.6295 37.6014 90.7794 37.648C90.9294 37.6947 91.0231 37.5935 91.0606 37.3447C91.0981 37.0957 91.0981 36.738 91.0606 36.2713C91.0231 35.8044 91.0981 35.4467 91.2857 35.1979C91.4731 34.9489 91.6324 34.8246 91.7639 34.8246C91.8951 34.8246 91.9982 34.8868 92.0731 35.0111C92.1481 35.1356 92.2042 35.3068 92.2418 35.5245C92.2794 35.7424 92.2981 35.9445 92.2981 36.1312C92.4482 36.2869 92.5606 36.3024 92.6356 36.1779C92.7106 36.0534 92.7763 35.9057 92.8325 35.7345C92.8887 35.5635 92.9542 35.4078 93.0294 35.2678C93.1043 35.1279 93.2355 35.1045 93.423 35.1979L93.4794 35.2445C93.5167 35.2757 93.5355 35.299 93.5355 35.3145C93.5355 35.33 93.5542 35.3535 93.5918 35.3846C93.6292 35.6334 93.6668 35.9445 93.7042 36.3179C93.7418 36.6913 93.798 37.0413 93.873 37.368C93.948 37.6947 94.0512 37.9514 94.1823 38.138C94.3136 38.3247 94.5293 38.3403 94.8293 38.1847C94.9044 38.0292 94.951 37.7803 94.9699 37.438C94.9886 37.0957 95.0166 36.6758 95.0542 36.1779C95.6918 36.6135 96.2449 37.1036 96.7135 37.648C97.1822 38.1925 97.5478 38.7914 97.8103 39.4448C98.2602 40.1915 98.4666 40.9383 98.429 41.6848C98.3916 42.4317 98.2602 43.1552 98.0353 43.8551C97.8103 44.5552 97.5573 45.2163 97.2759 45.8386C96.9947 46.4609 96.8541 47.0208 96.8541 47.5186C96.8541 47.612 96.798 47.6821 96.6854 47.7286C96.5729 47.7753 96.4603 47.7676 96.3479 47.7053C96.2729 47.6431 96.1699 47.6742 96.0385 47.7985C95.9072 47.9232 95.7479 48.2342 95.5604 48.7321C95.4478 48.981 95.4198 49.2222 95.476 49.4554C95.5323 49.6888 95.6073 49.9377 95.7011 50.2022C95.7948 50.4666 95.8605 50.7233 95.8979 50.9723C95.9354 51.2211 95.8979 51.4545 95.7855 51.6724C95.5979 52.0768 95.4106 52.3101 95.223 52.3723C95.0355 52.4345 94.8668 52.3879 94.7167 52.2324C94.5667 52.0768 94.4542 51.8512 94.3794 51.5556C94.3044 51.26 94.3044 50.9411 94.3794 50.5989C94.4168 50.35 94.4542 49.9611 94.4918 49.4321C94.5293 48.9032 94.52 48.4287 94.4635 48.0087C94.4073 47.5887 94.2668 47.332 94.0419 47.2386C93.8169 47.1453 93.4794 47.3941 93.0294 47.9854C92.8418 48.0475 92.7388 47.9931 92.7199 47.822C92.7012 47.6509 92.673 47.503 92.6356 47.3787C92.4856 47.4408 92.4106 47.4719 92.4106 47.4719C92.4106 47.4719 92.3918 47.503 92.3544 47.5653C92.2794 47.6277 92.2607 47.7053 92.2981 47.7985C92.3355 47.8919 92.3544 48.001 92.3544 48.1253C92.3544 48.2498 92.3263 48.3509 92.27 48.4287C92.2139 48.5065 92.0731 48.5455 91.8482 48.5455C91.6607 48.5142 91.5576 48.4132 91.5388 48.2421C91.52 48.0709 91.5294 47.8919 91.5668 47.7053L91.0606 47.8454C91.0606 48.0321 91.07 48.2342 91.0889 48.4521C91.1076 48.6698 91.1169 48.8643 91.1169 49.0354C91.1169 49.2066 91.0793 49.3543 91.0044 49.4789C90.9294 49.6032 90.7794 49.6654 90.5545 49.6654C90.3295 49.6654 90.1796 49.611 90.1046 49.5021C90.0294 49.3932 90.0014 49.261 90.0201 49.1054C90.0388 48.9499 90.0764 48.7709 90.1325 48.5687C90.1889 48.3665 90.217 48.172 90.217 47.9854C89.6921 48.0475 89.1764 48.0865 88.6702 48.1021C88.1639 48.1176 87.5921 48.1098 86.9547 48.0788C86.9547 48.2654 86.8797 48.4054 86.7297 48.4988C86.5422 48.5922 86.3642 48.6154 86.1954 48.5687C86.0265 48.522 85.8672 48.4754 85.7172 48.4287C85.5673 48.382 85.4362 48.3976 85.3235 48.4754C85.2111 48.5532 85.1361 48.7787 85.0985 49.152C84.9861 49.8055 84.9486 50.5367 84.9861 51.3456C85.0235 52.1546 85.1027 53.0245 84.9152 53.6468C84.8402 53.989 84.7824 54.4705 84.9135 54.9214C85.0448 55.3725 85.0892 55.5691 85.183 55.9892C85.2767 56.4092 85.3048 56.767 85.2673 57.0627C85.2298 57.3582 85.0048 57.5215 84.5924 57.5526C84.2174 57.5526 84.0112 57.3738 83.9736 57.016C83.9362 56.6583 83.9549 56.2381 84.0299 55.7559C84.1049 55.2736 84.2174 54.7835 84.3674 54.2857C84.5174 53.7879 84.6111 53.399 84.6486 53.1191C84.6486 52.9012 84.658 52.5744 84.6767 52.139C84.6954 51.7033 84.7048 51.2522 84.7048 50.7855C84.7048 50.3188 84.6673 49.8909 84.5924 49.5021C84.5174 49.1132 84.405 48.8721 84.2549 48.7787C84.2923 48.4677 84.3018 48.2421 84.2829 48.1021C84.2644 47.962 84.2268 47.8844 84.1705 47.8687C84.1142 47.8531 84.0673 47.8687 84.0299 47.9153C83.9923 47.962 83.9736 48.0164 83.9736 48.0788C83.8235 48.4521 83.6455 48.5766 83.4392 48.4521C83.233 48.3276 83.0924 48.0631 83.0174 47.6586C83.0174 47.5964 82.886 47.542 82.6238 47.4953C82.3611 47.4487 82.0238 47.3631 81.6111 47.2386C81.1988 47.1142 80.6926 46.9353 80.0925 46.702C79.4926 46.4686 78.855 46.1186 78.1802 45.6519C77.7301 45.3408 77.2428 44.8974 76.7178 44.3217C76.1929 43.7462 75.7241 43.1706 75.3117 42.595C74.8992 42.0193 74.5898 41.5217 74.3835 41.1015C74.1773 40.6816 74.1678 40.4716 74.3553 40.4716C76.1929 40.4716 77.5427 40.456 78.4051 40.4249C79.2677 40.3937 79.924 40.4093 80.3739 40.4716C80.8238 40.5338 81.2364 40.6737 81.6111 40.8915C81.9862 41.1094 82.6051 41.4672 83.4675 41.965C84.5174 42.525 85.4454 42.8906 86.2516 43.0616C87.0577 43.2328 87.7422 43.2795 88.3045 43.2017C88.867 43.1239 89.289 42.9529 89.57 42.6883C89.8514 42.4239 90.0294 42.1361 90.1046 41.8249C90.1796 41.0783 89.7951 40.4948 88.9513 40.0748C88.1078 39.6548 87.0577 39.2581 85.8016 38.8847C84.5456 38.5115 83.1954 38.0991 81.7519 37.648C80.3082 37.1969 79.0427 36.5668 77.9552 35.7579C77.6177 35.5089 77.2896 35.1511 76.9709 34.6845C76.6522 34.2178 76.3709 33.7122 76.1271 33.1677C75.8835 32.6232 75.7146 32.0554 75.621 31.4642C75.5271 30.8731 75.5365 30.3288 75.649 29.8308C75.9865 28.5864 76.7272 27.5285 77.8709 26.6573C79.0145 25.7862 80.3551 25.1251 81.8927 24.6739C83.4299 24.2228 85.089 24.0049 86.8704 24.0205C88.6514 24.0361 90.3669 24.3162 92.0169 24.8607C93.6668 25.405 95.1574 26.2217 96.4885 27.3107C97.8197 28.3997 98.804 29.7843 99.4414 31.4642L99.329 31.4176Z" fill="#E31E24"/>
</svg>
